# xmcd
#
# Track frame offsets: 
#        150
#        21470
#        46397
#        70457
#        90872
#        110110
#        127567
#        140645
#        162235
#
# Disc length: 2440 seconds
#
# Revision: 2
# Processed by: cddbd v1.5.2PL0 Copyright (c) Steve Scherf et al.
# Submitted via: ExactAudioCopy v0.99pb3
#
DISCID=77098609
DTITLE=Louisiana Red - Rip Off Blues
DYEAR=1994
DGENRE=Blues
TTITLE0=Earline
TTITLE1=Rip Off Blues
TTITLE2=Machine Gun Blues
TTITLE3=Delores Delano
TTITLE4=Baby Loan Me Some Love
TTITLE5=I'm A Rich Man
TTITLE6=I'm The Boss
TTITLE7=Alabama Train
TTITLE8=Rocky Mountain Blues
EXTD=ID3G: 0
EXTT0=
EXTT1=
EXTT2=
EXTT3=
EXTT4=
EXTT5=
EXTT6=
EXTT7=
EXTT8=
PLAYORDER=
